<svg width="1056" height="768" viewBox="0 0 1056 768" fill="none" xmlns="http://www.w3.org/2000/svg">
<g filter="url(#filter0_d_265_989)">
<path d="M64 96C64 80.9151 64 73.3726 68.6863 68.6863C73.3726 64 80.9151 64 96 64H832C847.085 64 854.627 64 859.314 68.6863C864 73.3726 864 80.9151 864 96V544C864 559.085 864 566.627 859.314 571.314C854.627 576 847.085 576 832 576H96C80.9151 576 73.3726 576 68.6863 571.314C64 566.627 64 559.085 64 544V96Z" fill="white"/>
<rect x="184" y="328" width="32" height="8" rx="4" fill="#E92A2A"/>
<rect x="184" y="216" width="88" height="8" rx="4" fill="#EAE3E3"/>
<rect x="184" y="232" width="40" height="8" rx="4" fill="#F8F6F5"/>
<rect x="184" y="264" width="144" height="8" rx="4" fill="#F8F6F5"/>
<rect x="184" y="280" width="104" height="8" rx="4" fill="#F8F6F5"/>
<rect x="296" y="280" width="32" height="8" rx="4" fill="#F8F6F5"/>
<rect x="184" y="296" width="48" height="8" rx="4" fill="#F8F6F5"/>
<path d="M170.343 349.657L171.05 348.95L170.343 349.657ZM341.657 349.657L340.95 348.95L341.657 349.657ZM341.657 202.343L340.95 203.05L341.657 202.343ZM170.343 202.343L169.636 201.636L170.343 202.343ZM184 201H328V199H184V201ZM343 216V336H345V216H343ZM328 351H184V353H328V351ZM169 336V216H167V336H169ZM184 351C180.2 351 177.451 350.998 175.355 350.716C173.287 350.438 172.005 349.905 171.05 348.95L169.636 350.364C171.024 351.752 172.799 352.39 175.089 352.698C177.349 353.002 180.257 353 184 353V351ZM167 336C167 339.743 166.998 342.651 167.302 344.911C167.61 347.201 168.248 348.976 169.636 350.364L171.05 348.95C170.095 347.995 169.562 346.713 169.284 344.645C169.002 342.549 169 339.8 169 336H167ZM343 336C343 339.8 342.998 342.549 342.716 344.645C342.438 346.713 341.905 347.995 340.95 348.95L342.364 350.364C343.752 348.976 344.39 347.201 344.698 344.911C345.002 342.651 345 339.743 345 336H343ZM328 353C331.743 353 334.651 353.002 336.911 352.698C339.201 352.39 340.976 351.752 342.364 350.364L340.95 348.95C339.995 349.905 338.713 350.438 336.645 350.716C334.549 350.998 331.8 351 328 351V353ZM328 201C331.8 201 334.549 201.002 336.645 201.284C338.713 201.562 339.995 202.095 340.95 203.05L342.364 201.636C340.976 200.248 339.201 199.61 336.911 199.302C334.651 198.998 331.743 199 328 199V201ZM345 216C345 212.257 345.002 209.349 344.698 207.089C344.39 204.799 343.752 203.024 342.364 201.636L340.95 203.05C341.905 204.005 342.438 205.287 342.716 207.355C342.998 209.451 343 212.2 343 216H345ZM184 199C180.257 199 177.349 198.998 175.089 199.302C172.799 199.61 171.024 200.248 169.636 201.636L171.05 203.05C172.005 202.095 173.287 201.562 175.355 201.284C177.451 201.002 180.2 201 184 201V199ZM169 216C169 212.2 169.002 209.451 169.284 207.355C169.562 205.287 170.095 204.005 171.05 203.05L169.636 201.636C168.248 203.024 167.61 204.799 167.302 207.089C166.998 209.349 167 212.257 167 216H169Z" fill="#F8F6F5"/>
<rect x="184" y="512" width="32" height="8" rx="4" fill="#198C8C"/>
<rect x="184" y="400" width="88" height="8" rx="4" fill="#EAE3E3"/>
<rect x="184" y="416" width="40" height="8" rx="4" fill="#F8F6F5"/>
<rect x="184" y="448" width="144" height="8" rx="4" fill="#F8F6F5"/>
<rect x="184" y="464" width="104" height="8" rx="4" fill="#F8F6F5"/>
<rect x="296" y="464" width="32" height="8" rx="4" fill="#F8F6F5"/>
<rect x="184" y="480" width="48" height="8" rx="4" fill="#F8F6F5"/>
<path d="M170.343 533.657L171.05 532.95L170.343 533.657ZM341.657 533.657L340.95 532.95L341.657 533.657ZM341.657 386.343L340.95 387.05L341.657 386.343ZM170.343 386.343L169.636 385.636L170.343 386.343ZM184 385H328V383H184V385ZM343 400V520H345V400H343ZM328 535H184V537H328V535ZM169 520V400H167V520H169ZM184 535C180.2 535 177.451 534.998 175.355 534.716C173.287 534.438 172.005 533.905 171.05 532.95L169.636 534.364C171.024 535.752 172.799 536.39 175.089 536.698C177.349 537.002 180.257 537 184 537V535ZM167 520C167 523.743 166.998 526.651 167.302 528.911C167.61 531.201 168.248 532.976 169.636 534.364L171.05 532.95C170.095 531.995 169.562 530.713 169.284 528.645C169.002 526.549 169 523.8 169 520H167ZM343 520C343 523.8 342.998 526.549 342.716 528.645C342.438 530.713 341.905 531.995 340.95 532.95L342.364 534.364C343.752 532.976 344.39 531.201 344.698 528.911C345.002 526.651 345 523.743 345 520H343ZM328 537C331.743 537 334.651 537.002 336.911 536.698C339.201 536.39 340.976 535.752 342.364 534.364L340.95 532.95C339.995 533.905 338.713 534.438 336.645 534.716C334.549 534.998 331.8 535 328 535V537ZM328 385C331.8 385 334.549 385.002 336.645 385.284C338.713 385.562 339.995 386.095 340.95 387.05L342.364 385.636C340.976 384.248 339.201 383.61 336.911 383.302C334.651 382.998 331.743 383 328 383V385ZM345 400C345 396.257 345.002 393.349 344.698 391.089C344.39 388.799 343.752 387.024 342.364 385.636L340.95 387.05C341.905 388.005 342.438 389.287 342.716 391.355C342.998 393.451 343 396.2 343 400H345ZM184 383C180.257 383 177.349 382.998 175.089 383.302C172.799 383.61 171.024 384.248 169.636 385.636L171.05 387.05C172.005 386.095 173.287 385.562 175.355 385.284C177.451 385.002 180.2 385 184 385V383ZM169 400C169 396.2 169.002 393.451 169.284 391.355C169.562 389.287 170.095 388.005 171.05 387.05L169.636 385.636C168.248 387.024 167.61 388.799 167.302 391.089C166.998 393.349 167 396.257 167 400H169Z" fill="#F8F6F5"/>
<rect x="392" y="328" width="32" height="8" rx="4" fill="#198C8C"/>
<rect x="392" y="216" width="88" height="8" rx="4" fill="#EAE3E3"/>
<rect x="392" y="232" width="40" height="8" rx="4" fill="#F8F6F5"/>
<rect x="392" y="264" width="144" height="8" rx="4" fill="#F8F6F5"/>
<rect x="392" y="280" width="104" height="8" rx="4" fill="#F8F6F5"/>
<rect x="504" y="280" width="32" height="8" rx="4" fill="#F8F6F5"/>
<rect x="392" y="296" width="48" height="8" rx="4" fill="#F8F6F5"/>
<path d="M378.343 349.657L379.05 348.95L378.343 349.657ZM549.657 349.657L548.95 348.95L549.657 349.657ZM549.657 202.343L548.95 203.05L549.657 202.343ZM378.343 202.343L377.636 201.636L378.343 202.343ZM392 201H536V199H392V201ZM551 216V336H553V216H551ZM536 351H392V353H536V351ZM377 336V216H375V336H377ZM392 351C388.2 351 385.451 350.998 383.355 350.716C381.287 350.438 380.005 349.905 379.05 348.95L377.636 350.364C379.024 351.752 380.799 352.39 383.089 352.698C385.349 353.002 388.257 353 392 353V351ZM375 336C375 339.743 374.998 342.651 375.302 344.911C375.61 347.201 376.248 348.976 377.636 350.364L379.05 348.95C378.095 347.995 377.562 346.713 377.284 344.645C377.002 342.549 377 339.8 377 336H375ZM551 336C551 339.8 550.998 342.549 550.716 344.645C550.438 346.713 549.905 347.995 548.95 348.95L550.364 350.364C551.752 348.976 552.39 347.201 552.698 344.911C553.002 342.651 553 339.743 553 336H551ZM536 353C539.743 353 542.651 353.002 544.911 352.698C547.201 352.39 548.976 351.752 550.364 350.364L548.95 348.95C547.995 349.905 546.713 350.438 544.645 350.716C542.549 350.998 539.8 351 536 351V353ZM536 201C539.8 201 542.549 201.002 544.645 201.284C546.713 201.562 547.995 202.095 548.95 203.05L550.364 201.636C548.976 200.248 547.201 199.61 544.911 199.302C542.651 198.998 539.743 199 536 199V201ZM553 216C553 212.257 553.002 209.349 552.698 207.089C552.39 204.799 551.752 203.024 550.364 201.636L548.95 203.05C549.905 204.005 550.438 205.287 550.716 207.355C550.998 209.451 551 212.2 551 216H553ZM392 199C388.257 199 385.349 198.998 383.089 199.302C380.799 199.61 379.024 200.248 377.636 201.636L379.05 203.05C380.005 202.095 381.287 201.562 383.355 201.284C385.451 201.002 388.2 201 392 201V199ZM377 216C377 212.2 377.002 209.451 377.284 207.355C377.562 205.287 378.095 204.005 379.05 203.05L377.636 201.636C376.248 203.024 375.61 204.799 375.302 207.089C374.998 209.349 375 212.257 375 216H377Z" fill="#F8F6F5"/>
<rect x="392" y="512" width="32" height="8" rx="4" fill="#77C810"/>
<rect x="392" y="400" width="88" height="8" rx="4" fill="#EAE3E3"/>
<rect x="392" y="416" width="40" height="8" rx="4" fill="#F8F6F5"/>
<rect x="392" y="448" width="144" height="8" rx="4" fill="#F8F6F5"/>
<rect x="392" y="464" width="104" height="8" rx="4" fill="#F8F6F5"/>
<rect x="504" y="464" width="32" height="8" rx="4" fill="#F8F6F5"/>
<rect x="392" y="480" width="48" height="8" rx="4" fill="#F8F6F5"/>
<path d="M378.343 533.657L379.05 532.95L378.343 533.657ZM549.657 533.657L548.95 532.95L549.657 533.657ZM549.657 386.343L548.95 387.05L549.657 386.343ZM378.343 386.343L377.636 385.636L378.343 386.343ZM392 385H536V383H392V385ZM551 400V520H553V400H551ZM536 535H392V537H536V535ZM377 520V400H375V520H377ZM392 535C388.2 535 385.451 534.998 383.355 534.716C381.287 534.438 380.005 533.905 379.05 532.95L377.636 534.364C379.024 535.752 380.799 536.39 383.089 536.698C385.349 537.002 388.257 537 392 537V535ZM375 520C375 523.743 374.998 526.651 375.302 528.911C375.61 531.201 376.248 532.976 377.636 534.364L379.05 532.95C378.095 531.995 377.562 530.713 377.284 528.645C377.002 526.549 377 523.8 377 520H375ZM551 520C551 523.8 550.998 526.549 550.716 528.645C550.438 530.713 549.905 531.995 548.95 532.95L550.364 534.364C551.752 532.976 552.39 531.201 552.698 528.911C553.002 526.651 553 523.743 553 520H551ZM536 537C539.743 537 542.651 537.002 544.911 536.698C547.201 536.39 548.976 535.752 550.364 534.364L548.95 532.95C547.995 533.905 546.713 534.438 544.645 534.716C542.549 534.998 539.8 535 536 535V537ZM536 385C539.8 385 542.549 385.002 544.645 385.284C546.713 385.562 547.995 386.095 548.95 387.05L550.364 385.636C548.976 384.248 547.201 383.61 544.911 383.302C542.651 382.998 539.743 383 536 383V385ZM553 400C553 396.257 553.002 393.349 552.698 391.089C552.39 388.799 551.752 387.024 550.364 385.636L548.95 387.05C549.905 388.005 550.438 389.287 550.716 391.355C550.998 393.451 551 396.2 551 400H553ZM392 383C388.257 383 385.349 382.998 383.089 383.302C380.799 383.61 379.024 384.248 377.636 385.636L379.05 387.05C380.005 386.095 381.287 385.562 383.355 385.284C385.451 385.002 388.2 385 392 385V383ZM377 400C377 396.2 377.002 393.451 377.284 391.355C377.562 389.287 378.095 388.005 379.05 387.05L377.636 385.636C376.248 387.024 375.61 388.799 375.302 391.089C374.998 393.349 375 396.257 375 400H377Z" fill="#F8F6F5"/>
<rect x="600" y="328" width="32" height="8" rx="4" fill="#77C810"/>
<rect x="600" y="216" width="88" height="8" rx="4" fill="#EAE3E3"/>
<rect x="600" y="232" width="40" height="8" rx="4" fill="#F8F6F5"/>
<rect x="600" y="264" width="144" height="8" rx="4" fill="#F8F6F5"/>
<rect x="600" y="280" width="104" height="8" rx="4" fill="#F8F6F5"/>
<rect x="712" y="280" width="32" height="8" rx="4" fill="#F8F6F5"/>
<rect x="600" y="296" width="48" height="8" rx="4" fill="#F8F6F5"/>
<path d="M586.343 349.657L587.05 348.95L586.343 349.657ZM757.657 349.657L756.95 348.95L757.657 349.657ZM757.657 202.343L756.95 203.05L757.657 202.343ZM586.343 202.343L585.636 201.636L586.343 202.343ZM600 201H744V199H600V201ZM759 216V336H761V216H759ZM744 351H600V353H744V351ZM585 336V216H583V336H585ZM600 351C596.2 351 593.451 350.998 591.355 350.716C589.287 350.438 588.005 349.905 587.05 348.95L585.636 350.364C587.024 351.752 588.799 352.39 591.089 352.698C593.349 353.002 596.257 353 600 353V351ZM583 336C583 339.743 582.998 342.651 583.302 344.911C583.61 347.201 584.248 348.976 585.636 350.364L587.05 348.95C586.095 347.995 585.562 346.713 585.284 344.645C585.002 342.549 585 339.8 585 336H583ZM759 336C759 339.8 758.998 342.549 758.716 344.645C758.438 346.713 757.905 347.995 756.95 348.95L758.364 350.364C759.752 348.976 760.39 347.201 760.698 344.911C761.002 342.651 761 339.743 761 336H759ZM744 353C747.743 353 750.651 353.002 752.911 352.698C755.201 352.39 756.976 351.752 758.364 350.364L756.95 348.95C755.995 349.905 754.713 350.438 752.645 350.716C750.549 350.998 747.8 351 744 351V353ZM744 201C747.8 201 750.549 201.002 752.645 201.284C754.713 201.562 755.995 202.095 756.95 203.05L758.364 201.636C756.976 200.248 755.201 199.61 752.911 199.302C750.651 198.998 747.743 199 744 199V201ZM761 216C761 212.257 761.002 209.349 760.698 207.089C760.39 204.799 759.752 203.024 758.364 201.636L756.95 203.05C757.905 204.005 758.438 205.287 758.716 207.355C758.998 209.451 759 212.2 759 216H761ZM600 199C596.257 199 593.349 198.998 591.089 199.302C588.799 199.61 587.024 200.248 585.636 201.636L587.05 203.05C588.005 202.095 589.287 201.562 591.355 201.284C593.451 201.002 596.2 201 600 201V199ZM585 216C585 212.2 585.002 209.451 585.284 207.355C585.562 205.287 586.095 204.005 587.05 203.05L585.636 201.636C584.248 203.024 583.61 204.799 583.302 207.089C582.998 209.349 583 212.257 583 216H585Z" fill="#F8F6F5"/>
<rect x="600" y="512" width="32" height="8" rx="4" fill="#66A50D"/>
<rect x="600" y="400" width="88" height="8" rx="4" fill="#EAE3E3"/>
<rect x="600" y="416" width="40" height="8" rx="4" fill="#F8F6F5"/>
<rect x="600" y="448" width="144" height="8" rx="4" fill="#F8F6F5"/>
<rect x="600" y="464" width="104" height="8" rx="4" fill="#F8F6F5"/>
<rect x="712" y="464" width="32" height="8" rx="4" fill="#F8F6F5"/>
<rect x="600" y="480" width="48" height="8" rx="4" fill="#F8F6F5"/>
<path d="M586.343 533.657L587.05 532.95L586.343 533.657ZM757.657 533.657L756.95 532.95L757.657 533.657ZM757.657 386.343L756.95 387.05L757.657 386.343ZM586.343 386.343L585.636 385.636L586.343 386.343ZM600 385H744V383H600V385ZM759 400V520H761V400H759ZM744 535H600V537H744V535ZM585 520V400H583V520H585ZM600 535C596.2 535 593.451 534.998 591.355 534.716C589.287 534.438 588.005 533.905 587.05 532.95L585.636 534.364C587.024 535.752 588.799 536.39 591.089 536.698C593.349 537.002 596.257 537 600 537V535ZM583 520C583 523.743 582.998 526.651 583.302 528.911C583.61 531.201 584.248 532.976 585.636 534.364L587.05 532.95C586.095 531.995 585.562 530.713 585.284 528.645C585.002 526.549 585 523.8 585 520H583ZM759 520C759 523.8 758.998 526.549 758.716 528.645C758.438 530.713 757.905 531.995 756.95 532.95L758.364 534.364C759.752 532.976 760.39 531.201 760.698 528.911C761.002 526.651 761 523.743 761 520H759ZM744 537C747.743 537 750.651 537.002 752.911 536.698C755.201 536.39 756.976 535.752 758.364 534.364L756.95 532.95C755.995 533.905 754.713 534.438 752.645 534.716C750.549 534.998 747.8 535 744 535V537ZM744 385C747.8 385 750.549 385.002 752.645 385.284C754.713 385.562 755.995 386.095 756.95 387.05L758.364 385.636C756.976 384.248 755.201 383.61 752.911 383.302C750.651 382.998 747.743 383 744 383V385ZM761 400C761 396.257 761.002 393.349 760.698 391.089C760.39 388.799 759.752 387.024 758.364 385.636L756.95 387.05C757.905 388.005 758.438 389.287 758.716 391.355C758.998 393.451 759 396.2 759 400H761ZM600 383C596.257 383 593.349 382.998 591.089 383.302C588.799 383.61 587.024 384.248 585.636 385.636L587.05 387.05C588.005 386.095 589.287 385.562 591.355 385.284C593.451 385.002 596.2 385 600 385V383ZM585 400C585 396.2 585.002 393.451 585.284 391.355C585.562 389.287 586.095 388.005 587.05 387.05L585.636 385.636C584.248 387.024 583.61 388.799 583.302 391.089C582.998 393.349 583 396.257 583 400H585Z" fill="#F8F6F5"/>
<circle cx="92" cy="92" r="4" fill="#E92A2A"/>
<circle cx="108" cy="92" r="4" fill="#198C8C"/>
<circle cx="124" cy="92" r="4" fill="#77C810"/>
<rect x="308" y="80" width="312" height="24" rx="8" fill="#F8F6F5"/>
<path d="M426.625 91.75H426.062V90.0625C426.062 88.1172 424.445 86.5 422.5 86.5C420.531 86.5 418.938 88.1172 418.938 90.0625V91.75H418.375C417.742 91.75 417.25 92.2656 417.25 92.875V97.375C417.25 98.0078 417.742 98.5 418.375 98.5H426.625C427.234 98.5 427.75 98.0078 427.75 97.375V92.875C427.75 92.2656 427.234 91.75 426.625 91.75ZM424.188 91.75H420.812V90.0625C420.812 89.1484 421.562 88.375 422.5 88.375C423.414 88.375 424.188 89.1484 424.188 90.0625V91.75Z" fill="#198C8C"/>
<path opacity="0.64" d="M438.036 88.132V97H437.064L436.956 96.124C436.748 96.444 436.488 96.696 436.176 96.88C435.864 97.056 435.516 97.144 435.132 97.144C434.38 97.144 433.792 96.848 433.368 96.256C432.952 95.664 432.744 94.868 432.744 93.868C432.744 93.22 432.844 92.644 433.044 92.14C433.244 91.636 433.532 91.244 433.908 90.964C434.284 90.676 434.724 90.532 435.228 90.532C435.876 90.532 436.444 90.792 436.932 91.312V88L438.036 88.132ZM435.372 96.268C435.708 96.268 435.996 96.192 436.236 96.04C436.476 95.88 436.708 95.644 436.932 95.332V92.236C436.724 91.964 436.5 91.76 436.26 91.624C436.028 91.48 435.764 91.408 435.468 91.408C434.98 91.408 434.6 91.612 434.328 92.02C434.064 92.428 433.932 93.036 433.932 93.844C433.932 94.66 434.056 95.268 434.304 95.668C434.552 96.068 434.908 96.268 435.372 96.268ZM445.088 93.652C445.088 93.836 445.08 94.024 445.064 94.216H441.032C441.08 94.912 441.256 95.424 441.56 95.752C441.864 96.08 442.256 96.244 442.736 96.244C443.04 96.244 443.32 96.2 443.576 96.112C443.832 96.024 444.1 95.884 444.38 95.692L444.86 96.352C444.188 96.88 443.452 97.144 442.652 97.144C441.772 97.144 441.084 96.856 440.588 96.28C440.1 95.704 439.856 94.912 439.856 93.904C439.856 93.248 439.96 92.668 440.168 92.164C440.384 91.652 440.688 91.252 441.08 90.964C441.48 90.676 441.948 90.532 442.484 90.532C443.324 90.532 443.968 90.808 444.416 91.36C444.864 91.912 445.088 92.676 445.088 93.652ZM443.996 93.328C443.996 92.704 443.872 92.228 443.624 91.9C443.376 91.572 443.004 91.408 442.508 91.408C441.604 91.408 441.112 92.072 441.032 93.4H443.996V93.328ZM453.199 90.532C453.719 90.532 454.135 90.708 454.447 91.06C454.759 91.404 454.915 91.872 454.915 92.464V97H453.811V92.62C453.811 91.804 453.515 91.396 452.923 91.396C452.611 91.396 452.347 91.488 452.131 91.672C451.915 91.848 451.683 92.128 451.435 92.512V97H450.331V92.62C450.331 91.804 450.035 91.396 449.443 91.396C449.123 91.396 448.855 91.488 448.639 91.672C448.423 91.856 448.195 92.136 447.955 92.512V97H446.851V90.676H447.799L447.895 91.6C448.367 90.888 448.975 90.532 449.719 90.532C450.111 90.532 450.443 90.632 450.715 90.832C450.995 91.032 451.195 91.312 451.315 91.672C451.563 91.304 451.835 91.024 452.131 90.832C452.435 90.632 452.791 90.532 453.199 90.532ZM459.516 90.532C460.404 90.532 461.092 90.828 461.58 91.42C462.076 92.012 462.324 92.816 462.324 93.832C462.324 94.488 462.212 95.068 461.988 95.572C461.764 96.068 461.44 96.456 461.016 96.736C460.592 97.008 460.088 97.144 459.504 97.144C458.616 97.144 457.924 96.848 457.428 96.256C456.932 95.664 456.684 94.86 456.684 93.844C456.684 93.188 456.796 92.612 457.02 92.116C457.244 91.612 457.568 91.224 457.992 90.952C458.416 90.672 458.924 90.532 459.516 90.532ZM459.516 91.42C458.42 91.42 457.872 92.228 457.872 93.844C457.872 95.452 458.416 96.256 459.504 96.256C460.592 96.256 461.136 95.448 461.136 93.832C461.136 92.224 460.596 91.42 459.516 91.42ZM464.319 95.476C464.559 95.476 464.759 95.556 464.919 95.716C465.079 95.876 465.159 96.072 465.159 96.304C465.159 96.536 465.079 96.736 464.919 96.904C464.759 97.064 464.559 97.144 464.319 97.144C464.087 97.144 463.891 97.064 463.731 96.904C463.571 96.736 463.491 96.536 463.491 96.304C463.491 96.072 463.571 95.876 463.731 95.716C463.891 95.556 464.087 95.476 464.319 95.476ZM471.5 97H470.552L470.468 96.016C470.228 96.408 469.952 96.696 469.64 96.88C469.328 97.056 468.948 97.144 468.5 97.144C467.948 97.144 467.516 96.976 467.204 96.64C466.892 96.304 466.736 95.828 466.736 95.212V90.676H467.84V95.092C467.84 95.524 467.916 95.832 468.068 96.016C468.22 96.192 468.468 96.28 468.812 96.28C469.428 96.28 469.956 95.916 470.396 95.188V90.676H471.5V97ZM481.005 90.676L479.565 97H478.065L476.961 91.672L475.821 97H474.357L472.881 90.676H473.985L475.125 96.232L476.373 90.676H477.609L478.797 96.232L479.949 90.676H481.005ZM486.502 95.524C486.502 95.78 486.546 95.972 486.634 96.1C486.722 96.22 486.854 96.312 487.03 96.376L486.778 97.144C486.45 97.104 486.186 97.012 485.986 96.868C485.786 96.724 485.638 96.5 485.542 96.196C485.118 96.828 484.49 97.144 483.658 97.144C483.034 97.144 482.542 96.968 482.182 96.616C481.822 96.264 481.642 95.804 481.642 95.236C481.642 94.564 481.882 94.048 482.362 93.688C482.85 93.328 483.538 93.148 484.426 93.148H485.398V92.68C485.398 92.232 485.29 91.912 485.074 91.72C484.858 91.528 484.526 91.432 484.078 91.432C483.614 91.432 483.046 91.544 482.374 91.768L482.098 90.964C482.882 90.676 483.61 90.532 484.282 90.532C485.026 90.532 485.582 90.716 485.95 91.084C486.318 91.444 486.502 91.96 486.502 92.632V95.524ZM483.91 96.316C484.542 96.316 485.038 95.988 485.398 95.332V93.88H484.57C483.402 93.88 482.818 94.312 482.818 95.176C482.818 95.552 482.91 95.836 483.094 96.028C483.278 96.22 483.55 96.316 483.91 96.316ZM492.477 90.676V91.516L489.177 96.076H492.513L492.381 97H487.929V96.172L491.217 91.612H488.205V90.676H492.477ZM495.111 90.676V97H494.007V90.676H495.111ZM494.547 87.64C494.779 87.64 494.967 87.712 495.111 87.856C495.255 88 495.327 88.18 495.327 88.396C495.327 88.612 495.255 88.792 495.111 88.936C494.967 89.072 494.779 89.14 494.547 89.14C494.323 89.14 494.139 89.072 493.995 88.936C493.851 88.792 493.779 88.612 493.779 88.396C493.779 88.18 493.851 88 493.995 87.856C494.139 87.712 494.323 87.64 494.547 87.64ZM497.682 95.476C497.922 95.476 498.122 95.556 498.282 95.716C498.442 95.876 498.522 96.072 498.522 96.304C498.522 96.536 498.442 96.736 498.282 96.904C498.122 97.064 497.922 97.144 497.682 97.144C497.45 97.144 497.254 97.064 497.094 96.904C496.934 96.736 496.854 96.536 496.854 96.304C496.854 96.072 496.934 95.876 497.094 95.716C497.254 95.556 497.45 95.476 497.682 95.476ZM501.381 90.676V97H500.277V90.676H501.381ZM500.817 87.64C501.049 87.64 501.237 87.712 501.381 87.856C501.525 88 501.597 88.18 501.597 88.396C501.597 88.612 501.525 88.792 501.381 88.936C501.237 89.072 501.049 89.14 500.817 89.14C500.593 89.14 500.409 89.072 500.265 88.936C500.121 88.792 500.049 88.612 500.049 88.396C500.049 88.18 500.121 88 500.265 87.856C500.409 87.712 500.593 87.64 500.817 87.64ZM506.039 90.532C506.927 90.532 507.615 90.828 508.103 91.42C508.599 92.012 508.847 92.816 508.847 93.832C508.847 94.488 508.735 95.068 508.511 95.572C508.287 96.068 507.963 96.456 507.539 96.736C507.115 97.008 506.611 97.144 506.027 97.144C505.139 97.144 504.447 96.848 503.951 96.256C503.455 95.664 503.207 94.86 503.207 93.844C503.207 93.188 503.319 92.612 503.543 92.116C503.767 91.612 504.091 91.224 504.515 90.952C504.939 90.672 505.447 90.532 506.039 90.532ZM506.039 91.42C504.943 91.42 504.395 92.228 504.395 93.844C504.395 95.452 504.939 96.256 506.027 96.256C507.115 96.256 507.659 95.448 507.659 93.832C507.659 92.224 507.119 91.42 506.039 91.42Z" fill="#061A38"/>
<a href="https://demo.uwazi.io/">
<rect fill="black" fill-opacity="0" y="0.800001" width="77.5314" height="14.4"/>
</a>
<rect x="168" y="136" width="592" height="32" rx="8" fill="#F8F6F5"/>
<path d="M189.836 156.883L187.492 154.539C187.375 154.445 187.234 154.375 187.094 154.375H186.719C187.352 153.555 187.75 152.523 187.75 151.375C187.75 148.703 185.547 146.5 182.875 146.5C180.18 146.5 178 148.703 178 151.375C178 154.07 180.18 156.25 182.875 156.25C184 156.25 185.031 155.875 185.875 155.219V155.617C185.875 155.758 185.922 155.898 186.039 156.016L188.359 158.336C188.594 158.57 188.945 158.57 189.156 158.336L189.812 157.68C190.047 157.469 190.047 157.117 189.836 156.883ZM182.875 154.375C181.211 154.375 179.875 153.039 179.875 151.375C179.875 149.734 181.211 148.375 182.875 148.375C184.516 148.375 185.875 149.734 185.875 151.375C185.875 153.039 184.516 154.375 182.875 154.375Z" fill="#061A38"/>
<path opacity="0.64" d="M200.856 149.532C201.288 149.532 201.676 149.592 202.02 149.712C202.364 149.832 202.692 150.012 203.004 150.252L202.536 150.948C202.248 150.764 201.972 150.628 201.708 150.54C201.452 150.452 201.18 150.408 200.892 150.408C200.532 150.408 200.248 150.484 200.04 150.636C199.832 150.78 199.728 150.98 199.728 151.236C199.728 151.492 199.824 151.692 200.016 151.836C200.216 151.98 200.572 152.12 201.084 152.256C201.788 152.432 202.312 152.672 202.656 152.976C203.008 153.28 203.184 153.696 203.184 154.224C203.184 154.848 202.94 155.324 202.452 155.652C201.972 155.98 201.384 156.144 200.688 156.144C199.728 156.144 198.932 155.868 198.3 155.316L198.888 154.644C199.424 155.052 200.016 155.256 200.664 155.256C201.08 155.256 201.408 155.172 201.648 155.004C201.896 154.828 202.02 154.592 202.02 154.296C202.02 154.08 201.976 153.908 201.888 153.78C201.8 153.644 201.648 153.528 201.432 153.432C201.216 153.328 200.9 153.22 200.484 153.108C199.812 152.932 199.324 152.696 199.02 152.4C198.724 152.104 198.576 151.728 198.576 151.272C198.576 150.944 198.672 150.648 198.864 150.384C199.064 150.112 199.336 149.904 199.68 149.76C200.032 149.608 200.424 149.532 200.856 149.532ZM209.518 152.652C209.518 152.836 209.51 153.024 209.494 153.216H205.462C205.51 153.912 205.686 154.424 205.99 154.752C206.294 155.08 206.686 155.244 207.166 155.244C207.47 155.244 207.75 155.2 208.006 155.112C208.262 155.024 208.53 154.884 208.81 154.692L209.29 155.352C208.618 155.88 207.882 156.144 207.082 156.144C206.202 156.144 205.514 155.856 205.018 155.28C204.53 154.704 204.286 153.912 204.286 152.904C204.286 152.248 204.39 151.668 204.598 151.164C204.814 150.652 205.118 150.252 205.51 149.964C205.91 149.676 206.378 149.532 206.914 149.532C207.754 149.532 208.398 149.808 208.846 150.36C209.294 150.912 209.518 151.676 209.518 152.652ZM208.426 152.328C208.426 151.704 208.302 151.228 208.054 150.9C207.806 150.572 207.434 150.408 206.938 150.408C206.034 150.408 205.542 151.072 205.462 152.4H208.426V152.328ZM215.423 154.524C215.423 154.78 215.467 154.972 215.555 155.1C215.643 155.22 215.775 155.312 215.951 155.376L215.699 156.144C215.371 156.104 215.107 156.012 214.907 155.868C214.707 155.724 214.559 155.5 214.463 155.196C214.039 155.828 213.411 156.144 212.579 156.144C211.955 156.144 211.463 155.968 211.103 155.616C210.743 155.264 210.563 154.804 210.563 154.236C210.563 153.564 210.803 153.048 211.283 152.688C211.771 152.328 212.459 152.148 213.347 152.148H214.319V151.68C214.319 151.232 214.211 150.912 213.995 150.72C213.779 150.528 213.447 150.432 212.999 150.432C212.535 150.432 211.967 150.544 211.295 150.768L211.019 149.964C211.803 149.676 212.531 149.532 213.203 149.532C213.947 149.532 214.503 149.716 214.871 150.084C215.239 150.444 215.423 150.96 215.423 151.632V154.524ZM212.831 155.316C213.463 155.316 213.959 154.988 214.319 154.332V152.88H213.491C212.323 152.88 211.739 153.312 211.739 154.176C211.739 154.552 211.831 154.836 212.015 155.028C212.199 155.22 212.471 155.316 212.831 155.316ZM220.439 149.532C220.663 149.532 220.871 149.556 221.063 149.604L220.859 150.684C220.667 150.636 220.483 150.612 220.307 150.612C219.915 150.612 219.599 150.756 219.359 151.044C219.119 151.332 218.931 151.78 218.795 152.388V156H217.691V149.676H218.639L218.747 150.96C218.915 150.488 219.143 150.132 219.431 149.892C219.719 149.652 220.055 149.532 220.439 149.532ZM224.26 149.532C224.636 149.532 224.98 149.588 225.292 149.7C225.604 149.804 225.904 149.976 226.192 150.216L225.664 150.912C225.44 150.752 225.22 150.636 225.004 150.564C224.796 150.484 224.564 150.444 224.308 150.444C223.796 150.444 223.396 150.648 223.108 151.056C222.828 151.464 222.688 152.068 222.688 152.868C222.688 153.668 222.828 154.26 223.108 154.644C223.388 155.02 223.788 155.208 224.308 155.208C224.556 155.208 224.784 155.172 224.992 155.1C225.2 155.02 225.432 154.896 225.688 154.728L226.192 155.448C225.616 155.912 224.972 156.144 224.26 156.144C223.404 156.144 222.728 155.856 222.232 155.28C221.744 154.704 221.5 153.908 221.5 152.892C221.5 152.22 221.612 151.632 221.836 151.128C222.06 150.624 222.376 150.232 222.784 149.952C223.2 149.672 223.692 149.532 224.26 149.532ZM230.663 149.532C231.239 149.532 231.687 149.704 232.007 150.048C232.335 150.392 232.499 150.864 232.499 151.464V156H231.395V151.62C231.395 151.172 231.307 150.856 231.131 150.672C230.963 150.488 230.715 150.396 230.387 150.396C230.059 150.396 229.767 150.492 229.511 150.684C229.255 150.876 229.015 151.148 228.791 151.5V156H227.687V147.144L228.791 147.024V150.552C229.287 149.872 229.911 149.532 230.663 149.532Z" fill="#061A38"/>
</g>
<defs>
<filter id="filter0_d_265_989" x="0" y="0" width="1056" height="768" filterUnits="userSpaceOnUse" color-interpolation-filters="sRGB">
<feFlood flood-opacity="0" result="BackgroundImageFix"/>
<feColorMatrix in="SourceAlpha" type="matrix" values="0 0 0 0 0 0 0 0 0 0 0 0 0 0 0 0 0 0 127 0" result="hardAlpha"/>
<feOffset dx="64" dy="64"/>
<feGaussianBlur stdDeviation="64"/>
<feColorMatrix type="matrix" values="0 0 0 0 0.45 0 0 0 0 0 0 0 0 0 1.60933e-07 0 0 0 0.24 0"/>
<feBlend mode="normal" in2="BackgroundImageFix" result="effect1_dropShadow_265_989"/>
<feBlend mode="normal" in="SourceGraphic" in2="effect1_dropShadow_265_989" result="shape"/>
</filter>
</defs>
</svg>
